<?xml version="1.0" encoding="iso-8859-1"?>
<!-- Generator: Adobe Illustrator 19.0.0, SVG Export Plug-In . SVG Version: 6.00 Build 0)  -->
<svg version="1.1" id="Capa_1" xmlns="http://www.w3.org/2000/svg" xmlns:xlink="http://www.w3.org/1999/xlink" x="0px" y="0px"
	 viewBox="0 0 457.481 457.481" style="enable-background:new 0 0 457.481 457.481;" xml:space="preserve">
<path id="XMLID_143_" d="M435.519,263.943l-3.344-13.906c-3.109-12.938-11.107-23.913-22.521-30.903s-24.825-9.128-37.762-6.016
	l-47.449,11.405l-1.239-5.158c-3.11-12.938-11.108-23.913-22.522-30.903c-11.075-6.781-24.027-8.995-36.606-6.279
	c-2.444-8.891-6.293-17.21-11.288-24.697v-34.296c0-29.021-14.531-54.713-36.7-70.182c18.624-6.182,32.892-22.551,35.599-42.815
	c0.658-4.927-2.803-9.454-7.729-10.112c-4.918-0.655-9.453,2.803-10.112,7.729c-1.715,12.842-10.512,23.301-22.13,27.663
	c5.607-7.139,9.417-15.781,10.686-25.279c0.658-4.927-2.802-9.455-7.729-10.113c-4.931-0.65-9.454,2.803-10.113,7.729
	c-2.274,17.021-16.988,29.857-34.225,29.857c-0.259,0-93.434,0-93.434,0c-30.43,0-55.187,24.758-55.187,55.188v15.396
	c0,4.971,4.029,9,9,9h51.028v107.97c0,44.118,33.58,80.541,76.521,85.054v43.152h-34.669c-0.138-0.005-0.277-0.005-0.414,0h-21.906
	c-3.965,0-7.463,2.596-8.613,6.391L66.586,445.87c-0.826,2.727-0.313,5.684,1.385,7.972s4.379,3.638,7.228,3.638h74.047
	c0.137,0.003,0.275,0.003,0.414,0h35.204c0.069,0.002,0.138,0.002,0.208,0.002c0.069,0,0.138,0,0.207-0.002h74.047
	c2.85,0,5.53-1.35,7.228-3.638c1.698-2.288,2.212-5.245,1.386-7.972l-26.072-86.053c-1.149-3.795-4.648-6.391-8.613-6.391h-21.907
	c-0.138-0.005-0.276-0.005-0.415,0h-34.67v-42.683h13.791c18.756,16.623,41.914,27.61,66.696,31.421
	c2.597,0.4,5.235-0.354,7.229-2.065c1.993-1.71,3.14-4.204,3.14-6.83v-19.591l117.468-28.235c0.059-0.014,0.119-0.028,0.178-0.042
	l44.109-10.603c2.321-0.559,4.325-2.016,5.572-4.051C435.691,268.712,436.077,266.264,435.519,263.943z M81.741,99.251H39.713
	v-6.396c0-20.506,16.682-37.188,37.187-37.188h4.842V99.251z M99.741,225.22V55.668h67.521c37.233,0,67.524,30.29,67.524,67.521
	v14.717c-14.611-11.637-33.104-18.599-53.192-18.599h-26.703c-4.971,0-9,4.029-9,9v84.697c0,28.864,9.654,56.904,27.32,79.739h-5.95
	C130.031,292.744,99.741,262.453,99.741,225.22z M87.33,439.479l20.62-68.053h8.756l20.62,68.053H87.33z M217.82,371.426h8.757
	l20.619,68.053H197.2L217.82,371.426z M199.012,371.426l-20.62,68.053h-22.257l-20.62-68.053H199.012z M249.117,249.521
	c-0.001,0.063-0.002,0.126-0.002,0.189c0,0.065,0.001,0.131,0.002,0.196v34.767c-27.011-8.804-46.298-34.477-46.298-63.546v-52.757
	c0-4.971-4.029-9-9-9s-9,4.029-9,9v52.757c0,20.315,7.367,40,20.744,55.427c11.51,13.274,26.763,22.628,43.555,26.838v18.877
	c-49.261-12.478-85.226-57.705-85.226-109.265v-75.697h17.703c22.259,0,42.039,10.828,54.346,27.491
	c0.321,0.57,0.703,1.102,1.137,1.586c5.643,8.119,9.552,17.532,11.185,27.693c0.028,0.243,0.065,0.487,0.113,0.73
	c0.489,3.271,0.742,6.616,0.742,10.021V249.521z M266.982,199.982l0.143-0.034c8.263-1.988,16.841-0.615,24.156,3.864
	c7.313,4.479,12.435,11.496,14.421,19.76l1.24,5.158l-39.824,9.571v-33.473C267.117,203.203,267.072,201.586,266.982,199.982z
	 M267.117,295.166v-38.352l34.992-8.41c7.263,13.437,18.445,24.021,31.599,30.756L267.117,295.166z M380.615,267.885
	c-0.02,0.005-0.04,0.009-0.06,0.014l-0.146,0.035c-23.152,5.497-47.229-4.574-59.982-23.934l55.672-13.381
	c8.264-1.987,16.841-0.613,24.154,3.864c7.313,4.479,12.435,11.496,14.421,19.761l1.239,5.155L380.615,267.885z M142.753,93.506
	h-1.992c-4.971,0-9-4.029-9-9s4.029-9,9-9h1.992c4.971,0,9,4.029,9,9S147.723,93.506,142.753,93.506z"/>
<g>
</g>
<g>
</g>
<g>
</g>
<g>
</g>
<g>
</g>
<g>
</g>
<g>
</g>
<g>
</g>
<g>
</g>
<g>
</g>
<g>
</g>
<g>
</g>
<g>
</g>
<g>
</g>
<g>
</g>
</svg>
