<?xml version="1.0" encoding="iso-8859-1"?>
<!-- Generator: Adobe Illustrator 18.1.1, SVG Export Plug-In . SVG Version: 6.00 Build 0)  -->
<svg version="1.1" id="Capa_1" xmlns="http://www.w3.org/2000/svg" xmlns:xlink="http://www.w3.org/1999/xlink" x="0px" y="0px"
	 viewBox="0 0 274.001 274.001" style="enable-background:new 0 0 274.001 274.001;" xml:space="preserve">
<g>
	<path style="fill:#030104;" d="M150.905,175.061c-28.218,7.6-21.313-5.932-18.589-26.34l0,0
		c-10.142,14.938-24.158,6.084-20.715-7.271c-5.529,10.365-16.657,21.303-28.558,13.391c-12.46-8.039-7.688-85-83.043-114.833
		c11.459,7.41,32.063,33.354,2.302,60.66c36.499,1.346,22.635,36.253,13.426,38.675c22.66,2.598,33.872,14.784,27.071,44.2
		c18.725-10.427,52.082-8.753,41.083,37.198c8.803-21.631,50.63-27.257,45.071,6.77c15.223-19.209,48.701-14.457,56.256,6.482
		c-0.384-19.43,25.111-35.564,41.476-23.154c-1.149-20.68,24.084-39.162,47.316-37.398
		C234.244,141.285,181.952,166.709,150.905,175.061z"/>
</g>
<g>
</g>
<g>
</g>
<g>
</g>
<g>
</g>
<g>
</g>
<g>
</g>
<g>
</g>
<g>
</g>
<g>
</g>
<g>
</g>
<g>
</g>
<g>
</g>
<g>
</g>
<g>
</g>
<g>
</g>
</svg>
