<?xml version="1.0" encoding="iso-8859-1"?>
<!-- Generator: Adobe Illustrator 18.0.0, SVG Export Plug-In . SVG Version: 6.00 Build 0)  -->
<!DOCTYPE svg PUBLIC "-//W3C//DTD SVG 1.1//EN" "http://www.w3.org/Graphics/SVG/1.1/DTD/svg11.dtd">
<svg version="1.1" id="Capa_1" xmlns="http://www.w3.org/2000/svg" xmlns:xlink="http://www.w3.org/1999/xlink" x="0px" y="0px"
	 viewBox="0 0 297 297" style="enable-background:new 0 0 297 297;" xml:space="preserve">
<g>
	<path d="M274.841,275.379L179.087,6.428c-1.578-4.434-6.117-7.086-10.758-6.287c-4.637,0.801-8.025,4.824-8.025,9.531
		c0,12.201-9.926,22.127-22.127,22.127h-32.189c-20.859,0-38.164,15.482-41.043,35.558H54.867c-18.344,0-33.27,14.925-33.27,33.27
		v7.573c0,2.565,1.02,5.025,2.834,6.84c1.814,1.813,4.273,2.832,6.838,2.832h2.445c3.01,13.764,12.602,28.521,32.275,28.521h16.414
		c15.133,49.147,32.047,80.239,50.289,92.4c7.805,5.203,15.656,9.131,23.5,11.771v20.078h-22.246c-5.34,0-9.672,4.331-9.672,9.672
		v7.013c0,5.341,4.332,9.672,9.672,9.672c4.42,0,8.146-2.964,9.303-7.013h30.062c1.635,3.023,4.834,5.078,8.512,5.078
		c5.342,0,9.672-4.33,9.672-9.672v-5.078c0-5.341-4.33-9.672-9.672-9.672h-6.287v-16.2c1.498,0.098,2.994,0.161,4.488,0.161
		c16.738,0,29.469-6.124,36.98-11.028l41.885,41.887c1.867,1.866,4.344,2.832,6.842,2.832c1.783,0,3.574-0.491,5.166-1.496
		C274.72,284.382,276.359,279.639,274.841,275.379z M54.867,86.701h12.156c0.715,3.364,1.588,7.351,2.615,11.826l-28.539,0.001
		C42.115,91.842,47.902,86.701,54.867,86.701z M54.359,119.132c-0.182-0.419-0.346-0.839-0.502-1.261h20.502
		c0.768,2.975,1.582,6.04,2.438,9.179H65.99C60.261,127.05,56.785,124.681,54.359,119.132z M224.693,223.906
		c-1.889-1.888-4.363-2.832-6.84-2.832c-2.475,0-4.951,0.944-6.838,2.832c-0.113,0.114-11.891,11.354-30.99,11.354
		c-11.785,0-24.1-4.227-36.602-12.562c-29.598-19.732-52.826-114.206-59.549-150.236c0.428-11.827,10.184-21.318,22.113-21.318
		h32.189c12.443,0,23.627-5.51,31.234-14.218l46.625,130.955c-8.07,5.86-31.615,18.374-64.617-3.628
		c-4.445-2.963-10.449-1.765-13.412,2.683c-2.963,4.444-1.764,10.449,2.682,13.412c18.057,12.038,34.24,15.789,47.395,15.789
		c7.103,0,13.324-1.095,18.478-2.567c6.561-1.873,11.961-4.482,16.137-6.975l19.525,54.845L224.693,223.906z"/>
	<path d="M122.097,77.443c-2.545,0-5.041,1.034-6.84,2.833c-1.799,1.8-2.834,4.295-2.834,6.839c0,2.544,1.035,5.039,2.834,6.837
		c1.809,1.8,4.295,2.835,6.84,2.835c2.543,0,5.039-1.035,6.836-2.835c1.809-1.808,2.836-4.293,2.836-6.837
		c0-2.544-1.027-5.039-2.836-6.839C127.136,78.477,124.64,77.443,122.097,77.443z"/>
</g>
<g>
</g>
<g>
</g>
<g>
</g>
<g>
</g>
<g>
</g>
<g>
</g>
<g>
</g>
<g>
</g>
<g>
</g>
<g>
</g>
<g>
</g>
<g>
</g>
<g>
</g>
<g>
</g>
<g>
</g>
</svg>
